<svg width="39" height="32" viewBox="0 0 39 32" fill="none" xmlns="http://www.w3.org/2000/svg">
<path d="M38.7809 15.9996C38.7809 11.8854 37.1465 7.93961 34.2373 5.03042C31.3281 2.12123 27.3824 0.486863 23.2682 0.486862C19.154 0.486862 15.2083 2.12123 12.2991 5.03042C9.38986 7.93961 7.75549 11.8854 7.75549 15.9996H12.6033C14.2097 15.9996 15.4625 14.6534 16.0509 13.1586C16.4372 12.1772 17.0234 11.2753 17.7836 10.515C19.2382 9.06038 21.2111 8.2432 23.2682 8.2432C25.3253 8.2432 27.2982 9.06038 28.7528 10.515C30.2074 11.9696 31.0245 13.9425 31.0245 15.9996H38.7809Z" fill="url(#paint0_linear_3_380)"/>
<path d="M29.8445 21.9369C30.6241 20.0548 31.0254 18.0376 31.0254 16.0005H38.7809C38.7809 24.5679 31.8356 31.5131 23.2682 31.5131C21.9265 31.5131 20.6245 31.3428 19.3829 31.0226C20.0854 30.8416 20.7759 30.6111 21.4491 30.3323C23.3312 29.5527 25.0413 28.4101 26.4818 26.9696C27.9223 25.5291 29.065 23.819 29.8445 21.9369Z" fill="#4392F9"/>
<path d="M0 15.9986C-2.91433e-07 18.0358 0.401247 20.053 1.18083 21.9351C1.96042 23.8172 3.10307 25.5273 4.54356 26.9678C5.98404 28.4082 7.69415 29.5509 9.57623 30.3305C11.4583 31.1101 13.4755 31.5113 15.5127 31.5113C17.5498 31.5113 19.567 31.1101 21.4491 30.3305C23.3312 29.5509 25.0413 28.4082 26.4818 26.9678C27.9223 25.5273 29.0649 23.8172 29.8445 21.9351C30.6241 20.053 31.0254 18.0358 31.0254 15.9986H26.1776C24.5712 15.9986 23.3184 17.3448 22.73 18.8395C22.7133 18.8821 22.6961 18.9245 22.6786 18.9669C22.2888 19.9079 21.7175 20.763 20.9972 21.4832C20.277 22.2034 19.4219 22.7748 18.4809 23.1646C17.5399 23.5544 16.5313 23.755 15.5127 23.755C14.4941 23.755 13.4855 23.5544 12.5445 23.1646C11.6034 22.7748 10.7484 22.2034 10.0281 21.4832C9.30787 20.763 8.73655 19.9079 8.34676 18.9669C7.95696 18.0258 7.75634 17.0172 7.75634 15.9986H0Z" fill="url(#paint1_linear_3_380)"/>
<path d="M0.00158691 15.9996C0.00158691 7.4321 6.94683 0.486862 15.5142 0.486862C16.8556 0.486862 18.1572 0.657108 19.3987 0.977185C16.7348 1.66343 14.2774 3.05221 12.2991 5.03043C9.38992 7.93959 7.75557 11.8854 7.75557 15.9996H0.00158691Z" fill="#F83758"/>
<defs>
<linearGradient id="paint0_linear_3_380" x1="38.7809" y1="8.2432" x2="7.75549" y2="8.2432" gradientUnits="userSpaceOnUse">
<stop stop-color="#CFE2FC"/>
<stop offset="1" stop-color="#4392F9"/>
</linearGradient>
<linearGradient id="paint1_linear_3_380" x1="1.01712e-06" y1="23.755" x2="31.0254" y2="23.755" gradientUnits="userSpaceOnUse">
<stop stop-color="#F8BCC6"/>
<stop offset="1" stop-color="#F83758"/>
</linearGradient>
</defs>
</svg>
