<svg width="142" height="117" viewBox="0 0 142 117" fill="none" xmlns="http://www.w3.org/2000/svg">
<g clip-path="url(#clip0_6_184)">
<path d="M58.5104 27.5319H57.8657V10.0931C57.8657 8.76766 57.6013 7.45518 57.0875 6.23063C56.5738 5.00607 55.8208 3.89341 54.8715 2.95618C53.9223 2.01895 52.7954 1.27549 51.5551 0.768269C50.3148 0.261044 48.9855 -1.94055e-05 47.6431 -1.52587e-05H10.2226C8.88017 -1.94055e-05 7.55086 0.261044 6.31059 0.768269C5.07033 1.27549 3.94339 2.01895 2.99413 2.95618C2.04487 3.89342 1.29188 5.00607 0.778146 6.23063C0.264411 7.45519 -2.09997e-06 8.76766 0 10.0931V105.764C-1.25998e-06 107.089 0.264413 108.402 0.778148 109.626C1.29188 110.851 2.04488 111.963 2.99414 112.901C3.9434 113.838 5.07033 114.581 6.31059 115.089C7.55086 115.596 8.88017 115.857 10.2226 115.857H47.6431C48.9855 115.857 50.3148 115.596 51.5551 115.089C52.7953 114.581 53.9223 113.838 54.8715 112.901C55.8208 111.963 56.5738 110.851 57.0875 109.626C57.6013 108.402 57.8657 107.089 57.8657 105.764V39.9451H58.5104V27.5319Z" fill="#E6E6E6"/>
<path d="M48.0555 2.62537H43.1709C43.3955 3.16911 43.4812 3.75906 43.4205 4.34323C43.3599 4.9274 43.1546 5.48787 42.8228 5.97527C42.4911 6.46267 42.043 6.86203 41.5181 7.13818C40.9932 7.41433 40.4076 7.55879 39.8128 7.55883H18.3751C17.7803 7.55879 17.1947 7.41433 16.6698 7.13818C16.1449 6.86203 15.6968 6.46267 15.3651 5.97527C15.0333 5.48787 14.828 4.9274 14.7674 4.34323C14.7067 3.75906 14.7924 3.16911 15.017 2.62537H10.4548C9.45228 2.62536 8.45957 2.82032 7.53336 3.19911C6.60714 3.5779 5.76556 4.13311 5.05667 4.83302C4.34777 5.53293 3.78545 6.36385 3.4018 7.27833C3.01815 8.19281 2.82068 9.17295 2.82068 10.1628V105.693C2.82068 106.683 3.01814 107.663 3.40179 108.578C3.78545 109.492 4.34777 110.323 5.05666 111.023C5.76556 111.723 6.60714 112.278 7.53335 112.657C8.45957 113.036 9.45228 113.23 10.4548 113.23H48.0555C49.058 113.23 50.0507 113.036 50.9769 112.657C51.9031 112.278 52.7447 111.723 53.4536 111.023C54.1625 110.323 54.7248 109.492 55.1085 108.578C55.4921 107.663 55.6896 106.683 55.6896 105.693V10.1628C55.6896 9.17295 55.4921 8.19281 55.1085 7.27833C54.7248 6.36385 54.1625 5.53293 53.4536 4.83302C52.7447 4.13311 51.9031 3.5779 50.9769 3.19911C50.0507 2.82032 49.058 2.62536 48.0555 2.62537Z" fill="white"/>
<path d="M18.1773 22.0461H15.9323C15.8533 22.0461 15.7776 22.0771 15.7218 22.1322C15.666 22.1873 15.6346 22.2621 15.6346 22.34V23.3129C15.6346 23.3909 15.666 23.4656 15.7218 23.5207C15.7776 23.5759 15.8533 23.6068 15.9323 23.6068H16.3043V25.0646H17.8053V23.6068H18.1773C18.2562 23.6068 18.332 23.5759 18.3878 23.5207C18.4436 23.4656 18.4749 23.3909 18.4749 23.3129V22.34C18.4749 22.2621 18.4436 22.1873 18.3878 22.1322C18.332 22.0771 18.2562 22.0461 18.1773 22.0461Z" fill="#E6E6E6"/>
<path d="M20.426 30.9507C19.0511 28.9643 18.3482 26.5993 18.418 24.1943C18.4193 24.1388 18.401 24.0846 18.3664 24.0409C18.3318 23.9972 18.2829 23.9666 18.228 23.9545V23.5341H15.857V23.9486H15.8243C15.7598 23.9487 15.6979 23.9741 15.6524 24.0192C15.6068 24.0643 15.5813 24.1254 15.5813 24.1891C15.5813 24.195 15.5816 24.2008 15.582 24.2066C15.7688 26.7775 15.138 29.083 13.6897 31.1232C13.6064 31.2404 13.5638 31.3812 13.5684 31.5243L13.8276 39.4424C13.8339 39.6191 13.909 39.7865 14.0372 39.9097C14.1655 40.033 14.337 40.1026 14.516 40.104H19.8789C20.0599 40.1026 20.2332 40.0314 20.3619 39.9056C20.4905 39.7799 20.5643 39.6095 20.5676 39.4308L20.6675 31.7429C20.6705 31.4608 20.5862 31.1844 20.426 30.9507Z" fill="#E6E6E6"/>
<path d="M19.5772 33.581H14.9092C14.8401 33.581 14.7718 33.5958 14.709 33.6243C14.6462 33.6528 14.5904 33.6943 14.5454 33.7461C14.5005 33.7979 14.4673 33.8587 14.4484 33.9243C14.4294 33.9899 14.425 34.0587 14.4355 34.1262L15.1409 38.6532H19.1914L20.0483 34.1414C20.0612 34.0731 20.0588 34.0028 20.0411 33.9355C20.0235 33.8682 19.991 33.8055 19.946 33.752C19.901 33.6985 19.8447 33.6555 19.7809 33.6259C19.7172 33.5963 19.6476 33.581 19.5772 33.581Z" fill="white"/>
<path d="M43.1688 45.7658H40.9238C40.8449 45.7658 40.7692 45.7968 40.7133 45.8519C40.6575 45.907 40.6262 45.9818 40.6262 46.0597V47.0326C40.6262 47.1106 40.6575 47.1853 40.7133 47.2404C40.7692 47.2955 40.8449 47.3265 40.9238 47.3265H41.2958V48.7843H42.7968V47.3265H43.1688C43.2478 47.3265 43.3235 47.2955 43.3793 47.2404C43.4351 47.1853 43.4665 47.1106 43.4665 47.0326V46.0597C43.4665 45.9818 43.4351 45.907 43.3793 45.8519C43.3235 45.7968 43.2478 45.7658 43.1688 45.7658Z" fill="#E6E6E6"/>
<path d="M45.4173 54.6701C44.0424 52.6837 43.3395 50.3186 43.4093 47.9136C43.4106 47.8581 43.3923 47.8039 43.3577 47.7602C43.3231 47.7165 43.2742 47.686 43.2193 47.6738V47.2534H40.8483V47.6679H40.8156C40.7836 47.668 40.752 47.6742 40.7225 47.6863C40.693 47.6985 40.6662 47.7162 40.6437 47.7385C40.6211 47.7609 40.6032 47.7874 40.591 47.8165C40.5788 47.8457 40.5726 47.8769 40.5726 47.9085C40.5726 47.9143 40.5728 47.9201 40.5733 47.9259C40.7601 50.4968 40.1293 52.8023 38.681 54.8425C38.5977 54.9597 38.5551 55.1005 38.5597 55.2437L38.8189 63.1618C38.8251 63.3384 38.9002 63.5058 39.0285 63.6291C39.1567 63.7523 39.3282 63.8219 39.5072 63.8233H44.8702C45.0512 63.8219 45.2245 63.7507 45.3531 63.6249C45.4818 63.4992 45.5556 63.3288 45.5589 63.1501L45.6588 55.4623C45.6618 55.1801 45.5775 54.9037 45.4173 54.6701Z" fill="#E6E6E6"/>
<path d="M44.5685 57.3H39.9005C39.8314 57.3 39.7631 57.3147 39.7004 57.3432C39.6376 57.3717 39.5818 57.4133 39.5368 57.465C39.4918 57.5168 39.4587 57.5776 39.4397 57.6432C39.4207 57.7088 39.4163 57.7777 39.4268 57.8451L40.1322 62.3721H44.1828L45.0396 57.8603C45.0526 57.792 45.0501 57.7217 45.0324 57.6544C45.0148 57.5871 44.9823 57.5245 44.9373 57.471C44.8923 57.4175 44.836 57.3744 44.7722 57.3448C44.7085 57.3153 44.6389 57.3 44.5685 57.3H44.5685Z" fill="white"/>
<path d="M15.021 79.2986H13.9561C13.9186 79.2986 13.8827 79.3133 13.8562 79.3394C13.8298 79.3656 13.8149 79.401 13.8149 79.438V79.8995C13.8149 79.9365 13.8298 79.9719 13.8562 79.9981C13.8827 80.0242 13.9186 80.0389 13.9561 80.0389H14.1325V80.7304H14.8445V80.0389H15.021C15.0584 80.0389 15.0943 80.0242 15.1208 79.9981C15.1473 79.9719 15.1622 79.9364 15.1622 79.8995V79.438C15.1622 79.401 15.1473 79.3656 15.1208 79.3394C15.0943 79.3133 15.0584 79.2986 15.021 79.2986Z" fill="#E6E6E6"/>
<path d="M16.0877 83.5222C15.4356 82.5799 15.1021 81.4581 15.1353 80.3173C15.1359 80.291 15.1272 80.2653 15.1108 80.2445C15.0944 80.2238 15.0712 80.2093 15.0451 80.2035V80.0041H13.9205V80.2008H13.905C13.8898 80.2008 13.8748 80.2037 13.8608 80.2095C13.8468 80.2152 13.8341 80.2236 13.8234 80.2342C13.8127 80.2448 13.8042 80.2574 13.7984 80.2712C13.7927 80.2851 13.7897 80.2999 13.7897 80.3149C13.7897 80.3176 13.7898 80.3204 13.79 80.3231C13.8938 81.4872 13.5757 82.6498 12.8924 83.604C12.8529 83.6596 12.8327 83.7264 12.8349 83.7943L12.9578 87.5502C12.9608 87.634 12.9964 87.7134 13.0572 87.7718C13.1181 87.8303 13.1994 87.8633 13.2843 87.864H15.8282C15.9141 87.8633 15.9963 87.8295 16.0573 87.7699C16.1183 87.7102 16.1534 87.6294 16.1549 87.5446L16.2023 83.898C16.2037 83.7641 16.1637 83.633 16.0877 83.5222Z" fill="#E6E6E6"/>
<path d="M15.7215 84.9031H13.2942V86.1013H15.7215V84.9031Z" fill="white"/>
<path d="M19.9784 79.2986H18.9135C18.8761 79.2986 18.8402 79.3133 18.8137 79.3394C18.7872 79.3656 18.7723 79.401 18.7723 79.438V79.8995C18.7723 79.9365 18.7872 79.9719 18.8137 79.9981C18.8402 80.0242 18.8761 80.0389 18.9135 80.0389H19.09V80.7304H19.802V80.0389H19.9784C20.0159 80.0389 20.0518 80.0242 20.0783 79.9981C20.1048 79.9719 20.1196 79.9364 20.1196 79.8995V79.438C20.1196 79.401 20.1048 79.3656 20.0783 79.3394C20.0518 79.3133 20.0159 79.2986 19.9784 79.2986Z" fill="#E6E6E6"/>
<path d="M21.0448 83.5222C20.3927 82.5799 20.0592 81.4581 20.0924 80.3173C20.093 80.291 20.0843 80.2653 20.0679 80.2445C20.0515 80.2238 20.0283 80.2093 20.0022 80.2035V80.0041H18.8776V80.2008H18.8621C18.8469 80.2008 18.8319 80.2037 18.8179 80.2095C18.8039 80.2152 18.7912 80.2236 18.7805 80.2342C18.7698 80.2448 18.7613 80.2574 18.7555 80.2712C18.7497 80.2851 18.7468 80.2999 18.7468 80.3149C18.7468 80.3176 18.7469 80.3204 18.7471 80.3231C18.8509 81.4872 18.5328 82.6498 17.8495 83.604C17.81 83.6596 17.7898 83.7264 17.792 83.7943L17.9149 87.5502C17.9179 87.634 17.9535 87.7134 18.0143 87.7718C18.0752 87.8303 18.1565 87.8633 18.2414 87.864H20.7853C20.8712 87.8633 20.9534 87.8295 21.0144 87.7699C21.0754 87.7102 21.1105 87.6294 21.112 87.5446L21.1594 83.898C21.1608 83.7641 21.1209 83.633 21.0448 83.5222Z" fill="#E6E6E6"/>
<path d="M20.6789 84.9031H18.2516V86.1013H20.6789V84.9031Z" fill="white"/>
<path d="M24.9356 79.2986H23.8707C23.8332 79.2986 23.7973 79.3133 23.7708 79.3394C23.7444 79.3656 23.7295 79.401 23.7295 79.438V79.8995C23.7295 79.9365 23.7444 79.9719 23.7708 79.9981C23.7973 80.0242 23.8332 80.0389 23.8707 80.0389H24.0472V80.7304H24.7591V80.0389H24.9356C24.973 80.0389 25.009 80.0242 25.0354 79.9981C25.0619 79.9719 25.0768 79.9364 25.0768 79.8995V79.438C25.0768 79.401 25.0619 79.3656 25.0354 79.3394C25.009 79.3133 24.973 79.2986 24.9356 79.2986Z" fill="#E6E6E6"/>
<path d="M26.0023 83.5222C25.3501 82.5799 25.0167 81.4581 25.0498 80.3173C25.0504 80.291 25.0418 80.2653 25.0253 80.2445C25.0089 80.2238 24.9857 80.2093 24.9597 80.2035V80.0041H23.835V80.2008H23.8195C23.8044 80.2008 23.7894 80.2037 23.7754 80.2095C23.7614 80.2152 23.7487 80.2236 23.738 80.2342C23.7273 80.2448 23.7188 80.2574 23.713 80.2712C23.7072 80.2851 23.7042 80.2999 23.7043 80.3149C23.7043 80.3176 23.7044 80.3204 23.7046 80.3231C23.8084 81.4872 23.4903 82.6498 22.807 83.604C22.7675 83.6596 22.7473 83.7264 22.7494 83.7943L22.8724 87.5502C22.8754 87.634 22.911 87.7134 22.9718 87.7718C23.0326 87.8303 23.114 87.8633 23.1989 87.864H25.7428C25.8286 87.8633 25.9108 87.8295 25.9719 87.7699C26.0329 87.7102 26.0679 87.6294 26.0695 87.5446L26.1169 83.898C26.1183 83.7641 26.0783 83.633 26.0023 83.5222Z" fill="#E6E6E6"/>
<path d="M25.6361 84.9031H23.2088V86.1013H25.6361V84.9031Z" fill="white"/>
<path d="M39.2686 70.1221H37.0235C36.9845 70.1221 36.9457 70.1297 36.9096 70.1445C36.8735 70.1593 36.8407 70.1809 36.8131 70.2082C36.7854 70.2355 36.7635 70.2679 36.7485 70.3035C36.7336 70.3392 36.7259 70.3774 36.7259 70.416V71.3889C36.7259 71.4669 36.7573 71.5416 36.8131 71.5967C36.8689 71.6519 36.9446 71.6828 37.0235 71.6828H37.3956V73.1406H38.8965V71.6828H39.2686C39.3475 71.6828 39.4232 71.6519 39.479 71.5967C39.5348 71.5416 39.5662 71.4669 39.5662 71.3889V70.416C39.5662 70.3774 39.5585 70.3392 39.5435 70.3035C39.5286 70.2679 39.5067 70.2355 39.479 70.2082C39.4514 70.1809 39.4186 70.1593 39.3825 70.1445C39.3464 70.1297 39.3076 70.1221 39.2686 70.1221Z" fill="#E6E6E6"/>
<path d="M41.5173 79.0267C40.1424 77.0403 39.4395 74.6752 39.5094 72.2703C39.5106 72.2148 39.4924 72.1606 39.4578 72.1168C39.4231 72.0731 39.3742 72.0426 39.3194 72.0304V71.61H36.9484V72.0246H36.9157C36.8837 72.0246 36.8521 72.0309 36.8226 72.043C36.7931 72.0551 36.7663 72.0728 36.7437 72.0951C36.7212 72.1175 36.7033 72.144 36.6911 72.1731C36.6789 72.2023 36.6727 72.2335 36.6727 72.2651C36.6727 72.2709 36.6729 72.2768 36.6734 72.2826C36.8602 74.8534 36.2294 77.159 34.7811 79.1991C34.6978 79.3163 34.6552 79.4571 34.6598 79.6003L34.919 87.5184C34.9253 87.695 35.0003 87.8624 35.1286 87.9857C35.2568 88.1089 35.4283 88.1785 35.6073 88.1799H40.9702C41.1513 88.1785 41.3246 88.1073 41.4532 87.9816C41.5819 87.8558 41.6557 87.6854 41.659 87.5067L41.7589 79.8189C41.7618 79.5367 41.6776 79.2604 41.5173 79.0267Z" fill="#E6E6E6"/>
<path d="M40.6683 81.6565H36.0003C35.9312 81.6565 35.8629 81.6712 35.8001 81.6997C35.7374 81.7282 35.6816 81.7698 35.6366 81.8215C35.5916 81.8733 35.5585 81.9341 35.5395 81.9997C35.5205 82.0653 35.5161 82.1342 35.5266 82.2016L36.232 86.7286H40.2825L41.1394 82.2169C41.1523 82.1485 41.1499 82.0782 41.1322 82.0109C41.1146 81.9436 41.0821 81.881 41.0371 81.8275C40.9921 81.774 40.9358 81.7309 40.872 81.7013C40.8083 81.6718 40.7387 81.6565 40.6683 81.6565Z" fill="white"/>
<path d="M40.4943 41.1232H27.1118C28.0474 36.1288 27.8322 30.0979 27.1118 23.612H40.4943C39.7931 30.0979 39.5836 36.1288 40.4943 41.1232Z" fill="#E6E6E6"/>
<path d="M33.8837 35.0736C35.6646 35.0736 37.1084 33.6482 37.1084 31.8898C37.1084 30.1314 35.6646 28.7059 33.8837 28.7059C32.1027 28.7059 30.659 30.1314 30.659 31.8898C30.659 33.6482 32.1027 35.0736 33.8837 35.0736Z" fill="white"/>
<path d="M28.2404 64.365H14.8579C15.7935 59.3706 15.5783 53.3397 14.8579 46.8538H28.2404C27.5392 53.3397 27.3297 59.3706 28.2404 64.365Z" fill="#E6E6E6"/>
<path d="M21.6299 58.3155C23.4109 58.3155 24.8546 56.89 24.8546 55.1316C24.8546 53.3732 23.4109 51.9477 21.6299 51.9477C19.849 51.9477 18.4052 53.3732 18.4052 55.1316C18.4052 56.89 19.849 58.3155 21.6299 58.3155Z" fill="white"/>
<path d="M48.0723 42.2374H34.6898C35.6254 37.243 35.4102 31.2121 34.6898 24.7262H48.0723C47.3711 31.2121 47.1616 37.243 48.0723 42.2374Z" fill="#E6E6E6"/>
<path d="M41.4618 36.1878C43.2427 36.1878 44.6865 34.7623 44.6865 33.0039C44.6865 31.2456 43.2427 29.8201 41.4618 29.8201C39.6808 29.8201 38.2371 31.2456 38.2371 33.0039C38.2371 34.7623 39.6808 36.1878 41.4618 36.1878Z" fill="white"/>
<path d="M48.0723 41.4411H34.6898C35.6254 36.4467 35.4102 30.4157 34.6898 23.9299H48.0723C47.3711 30.4158 47.1616 36.4467 48.0723 41.4411Z" fill="#E6E6E6"/>
<path d="M41.4618 35.3923C43.2427 35.3923 44.6865 33.9668 44.6865 32.2084C44.6865 30.45 43.2427 29.0246 41.4618 29.0246C39.6808 29.0246 38.2371 30.45 38.2371 32.2084C38.2371 33.9668 39.6808 35.3923 41.4618 35.3923Z" fill="white"/>
<path d="M48.0723 42.2374H34.6898C35.6254 37.243 35.4102 31.2121 34.6898 24.7262H48.0723C47.3711 31.2121 47.1616 37.243 48.0723 42.2374Z" fill="#E6E6E6"/>
<path d="M41.4618 36.1878C43.2427 36.1878 44.6865 34.7623 44.6865 33.0039C44.6865 31.2456 43.2427 29.8201 41.4618 29.8201C39.6808 29.8201 38.2371 31.2456 38.2371 33.0039C38.2371 34.7623 39.6808 36.1878 41.4618 36.1878Z" fill="white"/>
<path d="M51.1358 40.1674H7.27997V44.9432H51.1358V40.1674Z" fill="#E6E6E6"/>
<path d="M51.1358 63.8875H7.27997V68.6632H51.1358V63.8875Z" fill="#E6E6E6"/>
<path d="M51.1358 87.6074H7.27997V92.3832H51.1358V87.6074Z" fill="#E6E6E6"/>
<path d="M127.425 106.982L116.499 99.3526C120.184 95.8085 123.536 90.7619 126.741 85.056L137.667 92.6859C133.301 97.5813 129.603 102.386 127.425 106.982Z" fill="#F83758"/>
<path d="M127.428 98.8586C129.209 98.8586 130.653 97.4331 130.653 95.6747C130.653 93.9163 129.209 92.4908 127.428 92.4908C125.647 92.4908 124.203 93.9163 124.203 95.6747C124.203 97.4331 125.647 98.8586 127.428 98.8586Z" fill="white"/>
<path d="M74.7199 72.1655H73.5206C73.4784 72.1655 73.438 72.1821 73.4081 72.2115C73.3783 72.2409 73.3616 72.2809 73.3616 72.3225V72.8423C73.3616 72.8629 73.3657 72.8833 73.3737 72.9024C73.3817 72.9214 73.3934 72.9387 73.4081 72.9533C73.4229 72.9679 73.4404 72.9794 73.4597 72.9873C73.479 72.9952 73.4997 72.9993 73.5206 72.9993H73.7193V73.778H74.5212V72.9993H74.7199C74.7621 72.9993 74.8025 72.9827 74.8323 72.9533C74.8622 72.9238 74.8789 72.8839 74.8789 72.8423V72.3225C74.8789 72.2809 74.8621 72.241 74.8323 72.2115C74.8025 72.1821 74.7621 72.1655 74.7199 72.1655Z" fill="#E6E6E6"/>
<path d="M75.9212 76.9227C75.1867 75.8615 74.8112 74.5981 74.8485 73.3133C74.8492 73.2837 74.8394 73.2547 74.8209 73.2313C74.8024 73.208 74.7763 73.1917 74.747 73.1852V72.9606H73.4803V73.1821H73.4629C73.4458 73.1821 73.4289 73.1854 73.4132 73.1919C73.3974 73.1984 73.3831 73.2078 73.371 73.2198C73.359 73.2317 73.3494 73.2459 73.3429 73.2614C73.3364 73.277 73.3331 73.2937 73.3331 73.3106C73.3331 73.3137 73.3332 73.3168 73.3334 73.3199C73.4504 74.6309 73.0921 75.9402 72.3226 77.0148C72.2781 77.0774 72.2553 77.1526 72.2577 77.2291L72.3962 81.4591C72.3996 81.5534 72.4397 81.6429 72.5082 81.7087C72.5767 81.7746 72.6683 81.8117 72.7639 81.8125H75.6289C75.7256 81.8117 75.8182 81.7737 75.8869 81.7065C75.9556 81.6393 75.9951 81.5483 75.9968 81.4528L76.0502 77.3459C76.0518 77.1952 76.0068 77.0475 75.9212 76.9227Z" fill="#F83758"/>
<path opacity="0.2" d="M74.4698 72.3344C74.4698 72.4242 74.4336 72.5103 74.3693 72.5738C74.305 72.6374 74.2177 72.673 74.1267 72.673C74.0358 72.673 73.9485 72.6374 73.8842 72.5738C73.8198 72.5103 73.7837 72.4242 73.7837 72.3344" fill="black"/>
<path d="M75.3632 77.7377H72.9447V79.3296H75.3632V77.7377Z" fill="white"/>
<path d="M112.673 88.6902H110.428C110.349 88.6902 110.273 88.7211 110.217 88.7763C110.161 88.8314 110.13 88.9061 110.13 88.9841V89.957C110.13 90.0349 110.161 90.1097 110.217 90.1648C110.273 90.2199 110.349 90.2509 110.428 90.2509H110.8V91.7087H112.301V90.2509H112.673C112.752 90.2509 112.827 90.2199 112.883 90.1648C112.939 90.1097 112.97 90.0349 112.97 89.957V88.9841C112.97 88.9061 112.939 88.8314 112.883 88.7763C112.827 88.7211 112.752 88.6902 112.673 88.6902Z" fill="#E6E6E6"/>
<path d="M114.922 97.5948C113.547 95.6084 112.844 93.2434 112.914 90.8384C112.915 90.7829 112.897 90.7287 112.862 90.685C112.827 90.6413 112.779 90.6107 112.724 90.5986V90.1782H110.353V90.5927H110.32C110.288 90.5928 110.256 90.599 110.227 90.6111C110.197 90.6232 110.171 90.641 110.148 90.6633C110.125 90.6856 110.108 90.7121 110.095 90.7413C110.083 90.7704 110.077 90.8017 110.077 90.8332C110.077 90.8391 110.077 90.8449 110.078 90.8507C110.264 93.4216 109.634 95.7271 108.185 97.7672C108.102 97.8845 108.059 98.0253 108.064 98.1684L108.323 106.087C108.33 106.263 108.405 106.431 108.533 106.554C108.661 106.677 108.833 106.747 109.012 106.748H114.375C114.556 106.747 114.729 106.675 114.858 106.55C114.986 106.424 115.06 106.254 115.063 106.075L115.163 98.387C115.166 98.1049 115.082 97.8285 114.922 97.5948Z" fill="#F83758"/>
<path opacity="0.2" d="M112.205 89.007C112.205 89.1751 112.137 89.3364 112.017 89.4553C111.896 89.5742 111.733 89.641 111.563 89.641C111.392 89.641 111.229 89.5742 111.109 89.4553C110.988 89.3364 110.921 89.1751 110.921 89.007" fill="black"/>
<path d="M114.072 100.224H109.404C109.335 100.224 109.267 100.239 109.204 100.268C109.141 100.296 109.086 100.338 109.041 100.389C108.996 100.441 108.963 100.502 108.944 100.568C108.925 100.633 108.92 100.702 108.931 100.77L109.636 105.297H113.687L114.543 100.785C114.556 100.716 114.554 100.646 114.536 100.579C114.519 100.511 114.486 100.449 114.441 100.395C114.396 100.342 114.34 100.299 114.276 100.269C114.212 100.24 114.143 100.224 114.072 100.224Z" fill="white"/>
<path d="M106.268 106.97H92.885C93.8206 101.976 93.6054 95.9446 92.885 89.4588H106.268C105.566 95.9447 105.357 101.976 106.268 106.97Z" fill="#F83758"/>
<path d="M99.6568 100.92C101.438 100.92 102.882 99.4947 102.882 97.7363C102.882 95.9779 101.438 94.5525 99.6568 94.5525C97.8759 94.5525 96.4321 95.9779 96.4321 97.7363C96.4321 99.4947 97.8759 100.92 99.6568 100.92Z" fill="white"/>
<path d="M51.5298 51.8594L54.5341 51.5897L56.4459 47.0057L53.032 45.118L51.5298 51.8594Z" fill="#FFB8B8"/>
<path d="M79.101 64.4443C79.2009 64.1983 79.2401 63.9324 79.2155 63.6686C79.1909 63.4047 79.1031 63.1503 78.9594 62.9265C78.8157 62.7026 78.6202 62.5157 78.389 62.3812C78.1578 62.2466 77.8975 62.1681 77.6295 62.1524L72.965 61.8777L72.2782 64.1327L77.0801 65.4347C77.4813 65.5435 77.9091 65.5027 78.2818 65.32C78.6546 65.1374 78.9461 64.8257 79.101 64.4443Z" fill="#FFB8B8"/>
<path d="M74.0924 65.4723L74.0411 61.2411L63.6801 59.6088L55.6981 50.5703C55.2828 50.1001 54.709 49.7943 54.0829 49.7098C53.4568 49.6253 52.8209 49.7677 52.293 50.1106C51.9733 50.3182 51.7038 50.5926 51.5034 50.9144C51.3029 51.2362 51.1766 51.5975 51.1331 51.9729C51.0897 52.3482 51.1303 52.7283 51.2521 53.0865C51.3739 53.4446 51.5738 53.7719 51.8378 54.0454L58.4228 62.0466L74.0924 65.4723Z" fill="#F83758"/>
<path d="M49.2085 113.071H51.9396L58.7139 82.8311L65.732 92.1729L69.8287 112.397H72.4233L71.8771 90.6898L62.7277 67.4995H53.7149C51.2519 71.9004 49.3198 76.437 51.53 81.1171L49.2085 113.071Z" fill="#231F20"/>
<path d="M68.1543 114.909C68.1241 115.004 68.1148 115.105 68.1271 115.204C68.1394 115.303 68.1729 115.399 68.2255 115.484C68.2781 115.569 68.3485 115.643 68.432 115.699C68.5156 115.756 68.6104 115.794 68.7101 115.811L75.3932 116.982C75.6573 117.03 75.9299 116.981 76.1597 116.844C76.3895 116.707 76.5606 116.491 76.6406 116.238C76.7185 115.996 76.7076 115.735 76.6099 115.501C76.5122 115.266 76.3338 115.073 76.1062 114.955C74.6367 114.21 73.372 113.125 72.4205 111.792C71.686 112.467 70.865 112.403 69.9932 111.906L69.0686 112.02L68.1543 114.909Z" fill="#231F20"/>
<path d="M47.9439 114.909C47.9137 115.004 47.9045 115.105 47.9168 115.204C47.929 115.303 47.9626 115.399 48.0152 115.484C48.0678 115.569 48.1382 115.643 48.2217 115.699C48.3053 115.756 48.4 115.794 48.4997 115.811L55.1829 116.982C55.447 117.03 55.7196 116.981 55.9494 116.844C56.1792 116.707 56.3502 116.491 56.4303 116.238C56.5082 115.996 56.4973 115.735 56.3996 115.501C56.3018 115.266 56.1235 115.073 55.8958 114.955C54.4264 114.21 53.1617 113.125 52.2102 111.792C51.4757 112.467 50.6547 112.403 49.7829 111.906L48.8582 112.02L47.9439 114.909Z" fill="#231F20"/>
<path d="M56.5142 48.6913C58.6259 48.6913 60.3378 47.0011 60.3378 44.9161C60.3378 42.8312 58.6259 41.141 56.5142 41.141C54.4025 41.141 52.6906 42.8312 52.6906 44.9161C52.6906 47.0011 54.4025 48.6913 56.5142 48.6913Z" fill="#FFB8B8"/>
<path d="M53.1003 68.5112L63.0689 68.2416L60.1414 59.1443C61.9607 56.2646 60.1297 53.3879 57.5384 50.5117L55.49 49.1634L52.2126 48.8938C50.7937 50.3929 50.0172 52.376 50.046 54.4277C50.1109 58.8211 50.8988 63.6037 53.1003 68.5112Z" fill="#F83758"/>
<path d="M76.0039 74.6346C76.1937 74.4473 76.3357 74.2181 76.4183 73.9659C76.5008 73.7137 76.5214 73.4458 76.4785 73.1842C76.4355 72.9226 76.3303 72.6748 76.1713 72.4612C76.0124 72.2477 75.8043 72.0745 75.5642 71.9559L71.3852 69.8917L69.8553 71.6981L73.7513 74.7602C74.0768 75.0161 74.4864 75.1447 74.9018 75.1216C75.3173 75.0984 75.7096 74.9251 76.0039 74.6346Z" fill="#FFB8B8"/>
<path d="M70.9893 73.6349L72.628 69.7248L63.7527 64.1999L60.0156 52.7899C59.8212 52.1962 59.4154 51.6923 58.8735 51.3714C58.3315 51.0505 57.6902 50.9344 57.0682 51.0446C56.6916 51.1113 56.3344 51.2589 56.022 51.4769C55.7095 51.6949 55.4494 51.9781 55.2599 52.3063C55.0704 52.6345 54.9563 52.9997 54.9256 53.3763C54.8948 53.7528 54.9482 54.1314 55.082 54.4854L57.9481 64.3991L70.9893 73.6349Z" fill="#F83758"/>
<path d="M50.2325 43.4334C50.2325 44.9024 51.1988 47.1772 52.4175 48.1524C53.2375 48.8085 54.3211 48.7809 54.7389 47.8827C55.1675 46.9614 56.645 44.7957 59.2453 43.4334C62.7118 41.6174 58.016 38.5103 54.7389 38.9841C52.2764 39.3401 50.2325 40.9761 50.2325 43.4334Z" fill="#231F20"/>
<path d="M52.5539 41.4105C54.0622 41.4105 55.285 40.2032 55.285 38.7139C55.285 37.2247 54.0622 36.0174 52.5539 36.0174C51.0455 36.0174 49.8227 37.2247 49.8227 38.7139C49.8227 40.2032 51.0455 41.4105 52.5539 41.4105Z" fill="#231F20"/>
<path d="M55.695 37.7703C55.6947 37.0905 55.4342 36.4359 54.9657 35.9377C54.4972 35.4395 53.8553 35.1346 53.1687 35.084C53.2366 35.079 53.3044 35.0738 53.3735 35.0738C54.0979 35.0738 54.7926 35.3579 55.3047 35.8636C55.8169 36.3693 56.1047 37.0552 56.1047 37.7703C56.1047 38.4855 55.8169 39.1714 55.3047 39.6771C54.7926 40.1828 54.0979 40.4669 53.3735 40.4669C53.3044 40.4669 53.2366 40.4617 53.1687 40.4567C53.8553 40.4061 54.4972 40.1011 54.9657 39.603C55.4342 39.1048 55.6947 38.4502 55.695 37.7703Z" fill="#231F20"/>
<path d="M56.5824 46.2642C56.9218 46.2642 57.1969 45.902 57.1969 45.4553C57.1969 45.0085 56.9218 44.6463 56.5824 44.6463C56.243 44.6463 55.9679 45.0085 55.9679 45.4553C55.9679 45.902 56.243 46.2642 56.5824 46.2642Z" fill="#FFB8B8"/>
<path d="M133.965 108.127H91.449L82.446 66.1056H74.7625V64.2202H83.9939L92.997 106.241H133.965V108.127Z" fill="#3B3B3B"/>
<path d="M97.6795 115.803C99.9396 115.803 101.772 113.994 101.772 111.762C101.772 109.531 99.9396 107.722 97.6795 107.722C95.4193 107.722 93.5872 109.531 93.5872 111.762C93.5872 113.994 95.4193 115.803 97.6795 115.803Z" fill="#3B3B3B"/>
<path d="M128.235 115.803C130.496 115.803 132.328 113.994 132.328 111.762C132.328 109.531 130.496 107.722 128.235 107.722C125.975 107.722 124.143 109.531 124.143 111.762C124.143 113.994 125.975 115.803 128.235 115.803Z" fill="#3B3B3B"/>
<path d="M133.189 107.239H91.8241L84.5256 71.6277H140.039C140.322 71.6278 140.602 71.6884 140.859 71.8054C141.116 71.9224 141.345 72.0931 141.529 72.3056C141.713 72.5182 141.848 72.7676 141.926 73.0367C142.003 73.3058 142.02 73.5882 141.976 73.8645L135.127 105.603C135.056 106.06 134.821 106.476 134.466 106.776C134.11 107.077 133.657 107.241 133.189 107.239ZM92.2733 106.7H133.189C133.527 106.702 133.854 106.583 134.111 106.366C134.367 106.15 134.536 105.849 134.587 105.52L141.437 73.7808C141.469 73.5814 141.456 73.3776 141.401 73.1833C141.345 72.9891 141.247 72.8091 141.114 72.6557C140.981 72.5022 140.816 72.3791 140.631 72.2946C140.445 72.2102 140.243 72.1665 140.039 72.1665H85.188L92.2733 106.7Z" fill="#3B3B3B"/>
<path d="M99.8657 107.124L95.0859 71.9403L95.6242 71.8525L100.404 107.036L99.8657 107.124Z" fill="#3B3B3B"/>
<path d="M126.443 106.854L125.904 106.768L130.544 71.8534L131.083 71.9396L126.443 106.854Z" fill="#3B3B3B"/>
<path d="M113.78 71.8969H113.235V107.081H113.78V71.8969Z" fill="#3B3B3B"/>
<path d="M87.3131 81.3248L87.3118 81.8635L140.129 81.9898L140.13 81.4511L87.3131 81.3248Z" fill="#3B3B3B"/>
<path d="M136.403 97.9662L90.0021 98.2794L90.0058 98.8181L136.407 98.5049L136.403 97.9662Z" fill="#3B3B3B"/>
<path d="M75.5809 66.5093C77.2383 66.5093 78.5819 65.7857 78.5819 64.8931C78.5819 64.0005 77.2383 63.2769 75.5809 63.2769C73.9234 63.2769 72.5798 64.0005 72.5798 64.8931C72.5798 65.7857 73.9234 66.5093 75.5809 66.5093Z" fill="#3B3B3B"/>
</g>
<defs>
<clipPath id="clip0_6_184">
<rect width="142" height="117" fill="white"/>
</clipPath>
</defs>
</svg>
